<?xml version="1.0" encoding="iso-8859-1"?>
<!-- Uploaded to: SVG Repo, www.svgrepo.com, Generator: SVG Repo Mixer Tools -->
<svg fill="#000000" height="800px" width="800px" version="1.1" id="Layer_1" xmlns="http://www.w3.org/2000/svg" xmlns:xlink="http://www.w3.org/1999/xlink" 
	 viewBox="0 0 512.001 512.001" xml:space="preserve">
<g>
	<g>
		<path d="M508.001,176.305l-84.902-64.351c-3.22-2.439-7.672-2.439-10.892,0L326.9,176.612c-3.086,2.339-4.334,6.387-3.1,10.058
			c1.233,3.671,4.674,6.143,8.546,6.143h20.41v46.406l-38.921-23.014V96.255h27.46c0.008,0,0.016,0,0.024,0
			c4.979,0,9.016-4.035,9.016-9.016c0-3.123-1.588-5.875-3.999-7.491l-84.902-64.351c-3.22-2.439-7.672-2.439-10.892,0
			l-85.307,64.658c-3.086,2.339-4.333,6.387-3.1,10.058s4.674,6.143,8.546,6.143h27.459v119.952l-38.92,23.014v-46.406h20.41
			c3.872,0,7.312-2.473,8.546-6.143c1.233-3.67-0.013-7.719-3.1-10.058l-85.306-64.66c-3.22-2.439-7.672-2.439-10.892,0
			L3.57,176.612c-3.086,2.339-4.333,6.387-3.1,10.058c1.233,3.671,4.674,6.143,8.546,6.143h20.431v296.606
			c0,4.98,4.037,9.016,9.016,9.016h111.733h211.588h111.733c4.979,0,9.016-4.035,9.016-9.016V192.814h20.431
			c0.008,0,0.016,0,0.024,0c4.979,0,9.016-4.035,9.016-9.016C512,180.675,510.412,177.923,508.001,176.305z M197.503,78.224
			l58.486-44.329l58.486,44.329H197.503z M295.805,96.256v68.176v41.112l-2.855-1.689l-32.372-19.143
			c-2.83-1.674-6.347-1.674-9.178,0l-35.227,20.831V96.256H295.805z M141.19,249.883l-28.043,16.583
			c-3.498,2.069-5.18,6.221-4.107,10.14c1.072,3.92,4.633,6.637,8.696,6.637h23.444v197.163H47.478V192.814h93.712V249.883z
			 M38.462,174.782h-2.627l58.487-44.329l58.487,44.329h-2.605H38.462z M352.767,480.404H159.21V283.24h193.557V480.404z
			 M150.695,265.209l1.079-0.638l59.962-35.457c0.002-0.001,0.006-0.002,0.008-0.004l17.336-10.253l26.906-15.91l105.293,62.261
			H150.695z M370.797,480.404V283.24h23.443c4.063,0,7.624-2.718,8.696-6.637c1.072-3.919-0.609-8.071-4.107-10.14l-28.043-16.583
			v-57.069h93.712v287.591H370.797z M473.514,174.782H361.771h-2.605l58.487-44.329l58.486,44.329H473.514z"/>
	</g>
</g>
<g>
	<g>
		<path d="M126.018,296.935H62.628c-4.979,0-9.016,4.035-9.016,9.016v108.469c0,4.98,4.037,9.016,9.016,9.016h63.391
			c4.979,0,9.016-4.035,9.016-9.016v-54.224c0-0.004,0-0.007,0-0.012s0-0.007,0-0.012V305.95
			C135.034,300.97,130.997,296.935,126.018,296.935z M85.307,405.403H71.643v-36.204h13.664V405.403z M85.307,351.168H71.643
			v-36.202h13.664V351.168z M117.003,405.403h-13.664v-36.204h13.664V405.403z M117.003,351.168h-13.664v-36.202h13.664V351.168z"/>
	</g>
</g>
<g>
	<g>
		<path d="M287.684,296.935h-63.391c-4.979,0-9.016,4.035-9.016,9.016v108.469c0,4.98,4.037,9.016,9.016,9.016h63.391
			c4.979,0,9.016-4.035,9.016-9.016V305.95C296.7,300.97,292.663,296.935,287.684,296.935z M233.308,314.966h13.664v36.202h-13.664
			V314.966z M246.973,405.403h-13.664v-36.204h13.664V405.403z M278.667,405.403h-13.664v-36.204h13.664V405.403z M278.668,351.168
			h-13.664v-36.202h13.664V351.168z"/>
	</g>
</g>
<g>
	<g>
		<path d="M449.349,296.935h-63.391c-4.979,0-9.016,4.035-9.016,9.016v108.469c0,4.98,4.037,9.016,9.016,9.016h63.391
			c4.979,0,9.016-4.035,9.016-9.016v-54.224c0-0.004,0-0.007,0-0.012s0-0.007,0-0.012V305.95
			C458.364,300.97,454.328,296.935,449.349,296.935z M408.638,405.403h-13.664v-36.204h13.664V405.403z M408.638,351.168h-13.664
			v-36.202h13.664V351.168z M440.333,405.403h-13.664v-36.204h13.664V405.403z M440.333,351.168h-13.664v-36.202h13.664V351.168z"/>
	</g>
</g>
</svg>