<?xml version="1.0" standalone="no"?>
<!DOCTYPE svg PUBLIC "-//W3C//DTD SVG 20010904//EN"
 "http://www.w3.org/TR/2001/REC-SVG-20010904/DTD/svg10.dtd">
<svg version="1.0" xmlns="http://www.w3.org/2000/svg"
 width="175.000000pt" height="162.000000pt" viewBox="0 0 175.000000 162.000000"
 preserveAspectRatio="xMidYMid meet">
<metadata>
Created by potrace 1.16, written by Peter Selinger 2001-2019
</metadata>
<g transform="translate(0.000000,162.000000) scale(0.100000,-0.100000)"
fill="#000000" stroke="none">
<path d="M920 1299 c0 -19 5 -60 10 -90 9 -47 6 -72 -15 -167 -13 -62 -38
-146 -55 -189 -43 -108 -32 -113 17 -7 24 54 43 112 48 148 7 61 22 106 36
106 16 0 99 -143 99 -170 0 -7 -38 -69 -84 -138 -46 -70 -97 -152 -114 -182
-17 -31 -46 -70 -63 -88 -39 -39 -96 -82 -83 -61 5 7 9 16 10 19 11 37 20 48
46 58 16 6 27 16 23 22 -4 7 -12 7 -25 0 -26 -14 -26 -14 -24 17 0 15 6 29 12
31 15 5 16 32 2 32 -7 0 -6 8 2 23 7 12 12 54 13 92 0 61 4 76 31 115 28 42
81 196 71 207 -3 2 -31 -43 -62 -101 -31 -58 -75 -124 -99 -148 -27 -27 -57
-73 -78 -122 -38 -83 -80 -125 -105 -104 -9 7 -10 14 -3 23 14 17 2 45 -16 38
-24 -9 -16 6 39 81 29 39 63 87 75 107 l22 37 -24 6 c-17 4 -28 17 -36 43 -7
21 -16 42 -20 47 -10 10 -53 -57 -91 -140 -17 -37 -36 -63 -47 -66 -13 -4 -39
-45 -76 -120 -31 -63 -56 -119 -56 -125 0 -14 92 -143 121 -170 17 -15 42 -23
84 -26 226 -20 348 -28 359 -24 23 9 27 60 5 75 -10 7 -19 18 -19 24 0 6 6 5
16 -3 14 -11 15 -8 12 29 -2 23 -7 42 -13 42 -5 -1 -9 -8 -7 -17 2 -8 -1 -12
-7 -9 -6 4 -23 0 -38 -7 -16 -8 -37 -11 -47 -8 -16 6 -11 14 37 53 83 68 195
167 250 221 27 27 51 46 54 43 3 -3 14 -36 24 -73 15 -57 16 -70 5 -81 -11
-11 -18 -11 -35 -3 -11 7 -21 16 -21 21 0 6 -4 10 -9 10 -6 0 -20 -33 -33 -72
-19 -63 -48 -121 -69 -138 -10 -9 -39 -102 -34 -110 10 -16 142 -21 244 -11
87 9 110 15 138 37 38 29 112 119 139 170 l18 33 -71 103 c-82 120 -149 250
-187 363 -36 108 -45 119 -96 112 -38 -5 -42 -3 -86 46 -25 28 -56 72 -69 97
-40 75 -45 80 -45 39z m-454 -556 c-3 -8 -6 -21 -6 -29 0 -8 -6 -11 -16 -7 -9
3 -20 0 -25 -8 -6 -10 -9 -5 -9 17 0 37 4 42 36 42 18 0 24 -5 20 -15z"/>
</g>
</svg>
